<svg id="visual" viewBox="0 0 3840 2160" width="3840" height="2160" xmlns="http://www.w3.org/2000/svg" xmlns:xlink="http://www.w3.org/1999/xlink" version="1.1"><rect x="0" y="0" width="3840" height="2160" fill="#39386f"></rect><defs><linearGradient id="grad1_0" x1="43.8%" y1="0%" x2="100%" y2="100%"><stop offset="14.444444444444446%" stop-color="#f5f5f5" stop-opacity="1"></stop><stop offset="85.55555555555554%" stop-color="#f5f5f5" stop-opacity="1"></stop></linearGradient></defs><defs><linearGradient id="grad1_1" x1="43.8%" y1="0%" x2="100%" y2="100%"><stop offset="14.444444444444446%" stop-color="#f5f5f5" stop-opacity="1"></stop><stop offset="85.55555555555554%" stop-color="#b5b1c7" stop-opacity="1"></stop></linearGradient></defs><defs><linearGradient id="grad1_2" x1="43.8%" y1="0%" x2="100%" y2="100%"><stop offset="14.444444444444446%" stop-color="#77729a" stop-opacity="1"></stop><stop offset="85.55555555555554%" stop-color="#b5b1c7" stop-opacity="1"></stop></linearGradient></defs><defs><linearGradient id="grad1_3" x1="43.8%" y1="0%" x2="100%" y2="100%"><stop offset="14.444444444444446%" stop-color="#77729a" stop-opacity="1"></stop><stop offset="85.55555555555554%" stop-color="#39386f" stop-opacity="1"></stop></linearGradient></defs><defs><linearGradient id="grad2_0" x1="0%" y1="0%" x2="56.3%" y2="100%"><stop offset="14.444444444444446%" stop-color="#f5f5f5" stop-opacity="1"></stop><stop offset="85.55555555555554%" stop-color="#f5f5f5" stop-opacity="1"></stop></linearGradient></defs><defs><linearGradient id="grad2_1" x1="0%" y1="0%" x2="56.3%" y2="100%"><stop offset="14.444444444444446%" stop-color="#b5b1c7" stop-opacity="1"></stop><stop offset="85.55555555555554%" stop-color="#f5f5f5" stop-opacity="1"></stop></linearGradient></defs><defs><linearGradient id="grad2_2" x1="0%" y1="0%" x2="56.3%" y2="100%"><stop offset="14.444444444444446%" stop-color="#b5b1c7" stop-opacity="1"></stop><stop offset="85.55555555555554%" stop-color="#77729a" stop-opacity="1"></stop></linearGradient></defs><defs><linearGradient id="grad2_3" x1="0%" y1="0%" x2="56.3%" y2="100%"><stop offset="14.444444444444446%" stop-color="#39386f" stop-opacity="1"></stop><stop offset="85.55555555555554%" stop-color="#77729a" stop-opacity="1"></stop></linearGradient></defs><g transform="translate(3840, 0)"><path d="M0 1960C-226.1 1995.9 -452.1 2031.8 -632.2 1945.9C-812.4 1859.9 -946.5 1652 -1080.9 1487.8C-1215.3 1323.6 -1350 1203 -1460.3 1061C-1570.5 918.9 -1656.4 755.2 -1769 574.8C-1881.5 394.4 -2020.8 197.2 -2160 0L0 0Z" fill="#585484"></path><path d="M0 1470C-169.6 1496.9 -339.1 1523.9 -474.2 1459.4C-609.3 1394.9 -709.9 1239 -810.7 1115.8C-911.5 992.7 -1012.5 902.3 -1095.2 795.7C-1177.9 689.1 -1242.3 566.4 -1326.7 431.1C-1411.1 295.8 -1515.6 147.9 -1620 0L0 0Z" fill="#9591b0"></path><path d="M0 980C-113 998 -226.1 1015.9 -316.1 972.9C-406.2 929.9 -473.3 826 -540.5 743.9C-607.7 661.8 -675 601.5 -730.1 530.5C-785.3 459.4 -828.2 377.6 -884.5 287.4C-940.8 197.2 -1010.4 98.6 -1080 0L0 0Z" fill="#d4d3de"></path><path d="M0 490C-56.5 499 -113 508 -158.1 486.5C-203.1 465 -236.6 413 -270.2 371.9C-303.8 330.9 -337.5 300.8 -365.1 265.2C-392.6 229.7 -414.1 188.8 -442.2 143.7C-470.4 98.6 -505.2 49.3 -540 0L0 0Z" fill="#f5f5f5"></path></g><g transform="translate(0, 2160)"><path d="M0 -2160C254.3 -2172.5 508.5 -2185 662.8 -2040C817.2 -1895 871.5 -1592.6 1058.6 -1457C1245.7 -1321.5 1565.5 -1352.9 1671.4 -1214.4C1777.3 -1075.9 1669.2 -767.5 1652 -536.8C1634.8 -306.1 1708.4 -153 1782 0L0 0Z" fill="#585484"></path><path d="M0 -1620C190.7 -1629.4 381.4 -1638.7 497.1 -1530C612.9 -1421.3 653.6 -1194.4 794 -1092.8C934.3 -991.1 1174.2 -1014.7 1253.6 -910.8C1333 -806.9 1251.9 -575.6 1239 -402.6C1226.1 -229.5 1281.3 -114.8 1336.5 0L0 0Z" fill="#9591b0"></path><path d="M0 -1080C127.1 -1086.2 254.3 -1092.5 331.4 -1020C408.6 -947.5 435.8 -796.3 529.3 -728.5C622.9 -660.7 782.8 -676.4 835.7 -607.2C888.7 -537.9 834.6 -383.7 826 -268.4C817.4 -153 854.2 -76.5 891 0L0 0Z" fill="#d4d3de"></path><path d="M0 -540C63.6 -543.1 127.1 -546.2 165.7 -510C204.3 -473.8 217.9 -398.1 264.7 -364.3C311.4 -330.4 391.4 -338.2 417.9 -303.6C444.3 -269 417.3 -191.9 413 -134.2C408.7 -76.5 427.1 -38.3 445.5 0L0 0Z" fill="#f5f5f5"></path></g></svg>