<?xml version="1.0" encoding="utf-8"?><svg xmlns="http://www.w3.org/2000/svg" xmlns:xlink="http://www.w3.org/1999/xlink" width="3000" height="2000" preserveAspectRatio="xMidYMid" viewBox="0 0 3000 2000" style="z-index:1;margin-right:-2px;display:block;background-repeat-y:initial;background-repeat-x:initial;background-color:rgb(241, 242, 243);animation-play-state:paused" ><g transform="translate(1500,1000) scale(1,1) translate(-1500,-1000)" style="transform:matrix(1, 0, 0, 1, 0, 0);animation-play-state:paused" ><defs style="animation-play-state:paused" ><linearGradient id="ldbk-photon-n8bwvkn069a-lg" x1="1475" x2="3000" y1="0" y2="0" gradientUnits="userSpaceOnUse" style="animation-play-state:paused" ><stop stop-color="#1d3f72" offset="0" style="animation-play-state:paused" ></stop>

    
<stop stop-color="#632a6d" offset="1" style="animation-play-state:paused" ></stop></linearGradient>

  
<mask id="ldbk-photon-n8bwvkn069a-mask" style="animation-play-state:paused" ><g style="animation-play-state:paused" ><path d="M3300 -0.5 L1495.5707643138264 -0.5 A15 15 0 0 1 1495.5707643138264 30.5 L3300 30.5" fill="#fff" transform="matrix(1,0,0,1,28.115957260131836,0)" style="transform:matrix(1, 0, 0, 1, 28.116, 0);animation-play-state:paused" ></path>
<path d="M3055.150861921588 -0.5 L3080.3017238431758 -0.5 A15 15 0 0 1 3080.3017238431758 30.5 L3055.150861921588 30.5 A15 15 0 0 1 3055.150861921588 -0.5" fill="#000" transform="matrix(1,0,0,1,0,0)" opacity="1" style="transform:matrix(1, 0, 0, 1, 0, 0);animation-play-state:paused" ></path>
<path d="M3300 29.5 L1449.3563167751058 29.5 A15 15 0 0 0 1449.3563167751058 60.5 L3300 60.5" fill="#fff" transform="matrix(1,0,0,1,-41.71268081665039,0)" style="transform:matrix(1, 0, 0, 1, -41.7127, 0);animation-play-state:paused" ></path>
<path d="M1529.080135853295 29.5 L1555.6477254727606 29.5 A15 15 0 0 1 1555.6477254727606 60.5 L1529.080135853295 60.5 A15 15 0 0 1 1529.080135853295 29.5" fill="#fff" transform="matrix(1,0,0,1,0,0)" opacity="1" style="transform:matrix(1, 0, 0, 1, 0, 0);animation-play-state:paused" ></path>
<path d="M3300 59.5 L1501.1273496319593 59.5 A15 15 0 0 1 1501.1273496319593 90.5 L3300 90.5" fill="#fff" transform="matrix(1,0,0,1,28.321624755859375,0)" style="transform:matrix(1, 0, 0, 1, 28.3216, 0);animation-play-state:paused" ></path>
<path d="M3053.8671663134223 59.5 L3077.7343326268447 59.5 A15 15 0 0 1 3077.7343326268447 90.5 L3053.8671663134223 90.5 A15 15 0 0 1 3053.8671663134223 59.5" fill="#000" transform="matrix(1,0,0,1,-555.0294189453125,0)" opacity="1" style="transform:matrix(1, 0, 0, 1, -555.029, 0);animation-play-state:paused" ></path>
<path d="M3300 89.5 L1463.4564963047108 89.5 A15 15 0 0 0 1463.4564963047108 120.5 L3300 120.5" fill="#fff" transform="matrix(1,0,0,1,-27.5531063079834,0)" style="transform:matrix(1, 0, 0, 1, -27.5531, 0);animation-play-state:paused" ></path>
<path d="M1517.1250798548942 89.5 L1546.4666565642463 89.5 A15 15 0 0 1 1546.4666565642463 120.5 L1517.1250798548942 120.5 A15 15 0 0 1 1517.1250798548942 89.5" fill="#fff" transform="matrix(1,0,0,1,0,0)" opacity="0.852879" style="transform:matrix(1, 0, 0, 1, 0, 0);opacity:0.852879;animation-play-state:paused" ></path>
<path d="M3300 119.5 L1497.0209962512586 119.5 A15 15 0 0 1 1497.0209962512586 150.5 L3300 150.5" fill="#fff" transform="matrix(1,0,0,1,0.2777743637561798,0)" style="transform:matrix(1, 0, 0, 1, 0.277774, 0);animation-play-state:paused" ></path>
<path d="M3047.420513025274 119.5 L3064.841026050548 119.5 A15 15 0 0 1 3064.841026050548 150.5 L3047.420513025274 150.5 A15 15 0 0 1 3047.420513025274 119.5" fill="#000" transform="matrix(1,0,0,1,-1209.198486328125,0)" opacity="0.660981" style="transform:matrix(1, 0, 0, 1, -1209.2, 0);opacity:0.660981;animation-play-state:paused" ></path>
<path d="M3300 149.5 L1466.196059436029 149.5 A15 15 0 0 0 1466.196059436029 180.5 L3300 180.5" fill="#fff" transform="matrix(1,0,0,1,-0.7101860046386719,0)" style="transform:matrix(1, 0, 0, 1, -0.710186, 0);animation-play-state:paused" ></path>
<path d="M1529.1620560206848 149.5 L1569.0973655402115 149.5 A15 15 0 0 1 1569.0973655402115 180.5 L1529.1620560206848 180.5 A15 15 0 0 1 1529.1620560206848 149.5" fill="#fff" transform="matrix(1,0,0,1,0,0)" opacity="0.469083" style="transform:matrix(1, 0, 0, 1, 0, 0);opacity:0.469083;animation-play-state:paused" ></path>
<path d="M3300 179.5 L1474.607127839583 179.5 A15 15 0 0 1 1474.607127839583 210.5 L3300 210.5" fill="#fff" transform="matrix(1,0,0,1,34.03467559814453,0)" style="transform:matrix(1, 0, 0, 1, 34.0347, 0);animation-play-state:paused" ></path>
<path d="M3054.7679538585135 179.5 L3079.535907717027 179.5 A15 15 0 0 1 3079.535907717027 210.5 L3054.7679538585135 210.5 A15 15 0 0 1 3054.7679538585135 179.5" fill="#000" transform="matrix(1,0,0,1,-1894.723388671875,0)" opacity="0.660981" style="transform:matrix(1, 0, 0, 1, -1894.72, 0);opacity:0.660981;animation-play-state:paused" ></path>
<path d="M3300 209.5 L1442.0517938099706 209.5 A15 15 0 0 0 1442.0517938099706 240.5 L3300 240.5" fill="#fff" transform="matrix(1,0,0,1,-47.404815673828125,0)" style="transform:matrix(1, 0, 0, 1, -47.4048, 0);animation-play-state:paused" ></path>
<path d="M1536.9995243097733 209.5 L1547.5878220089348 209.5 A15 15 0 0 1 1547.5878220089348 240.5 L1536.9995243097733 240.5 A15 15 0 0 1 1536.9995243097733 209.5" fill="#fff" transform="matrix(1,0,0,1,0,0)" opacity="0.533049" style="transform:matrix(1, 0, 0, 1, 0, 0);opacity:0.533049;animation-play-state:paused" ></path>
<path d="M3300 239.5 L1481.7309865010936 239.5 A15 15 0 0 1 1481.7309865010936 270.5 L3300 270.5" fill="#fff" transform="matrix(1,0,0,1,9.891837120056152,0)" style="transform:matrix(1, 0, 0, 1, 9.89184, 0);animation-play-state:paused" ></path>
<path d="M3067.7529493336588 239.5 L3105.5058986673175 239.5 A15 15 0 0 1 3105.5058986673175 270.5 L3067.7529493336588 270.5 A15 15 0 0 1 3067.7529493336588 239.5" fill="#000" transform="matrix(1,0,0,1,-181.7253875732422,0)" opacity="1" style="transform:matrix(1, 0, 0, 1, -181.725, 0);animation-play-state:paused" ></path>
<path d="M3300 269.5 L1443.444044512125 269.5 A15 15 0 0 0 1443.444044512125 300.5 L3300 300.5" fill="#fff" transform="matrix(1,0,0,1,-30.409921646118164,0)" style="transform:matrix(1, 0, 0, 1, -30.4099, 0);animation-play-state:paused" ></path>
<path d="M1500.425833902675 269.5 L1531.2706773223013 269.5 A15 15 0 0 1 1531.2706773223013 300.5 L1500.425833902675 300.5 A15 15 0 0 1 1500.425833902675 269.5" fill="#fff" transform="matrix(1,0,0,1,0,0)" opacity="0.852879" style="transform:matrix(1, 0, 0, 1, 0, 0);opacity:0.852879;animation-play-state:paused" ></path>
<path d="M3300 299.5 L1469.1376702928553 299.5 A15 15 0 0 1 1469.1376702928553 330.5 L3300 330.5" fill="#fff" transform="matrix(1,0,0,1,0.5883598327636719,0)" style="transform:matrix(1, 0, 0, 1, 0.58836, 0);animation-play-state:paused" ></path>
<path d="M3063.6439452847776 299.5 L3097.287890569555 299.5 A15 15 0 0 1 3097.287890569555 330.5 L3063.6439452847776 330.5 A15 15 0 0 1 3063.6439452847776 299.5" fill="#000" transform="matrix(1,0,0,1,-925.1315307617188,0)" opacity="0.938166" style="transform:matrix(1, 0, 0, 1, -925.132, 0);opacity:0.938166;animation-play-state:paused" ></path>
<path d="M3300 329.5 L1408.4565333964915 329.5 A15 15 0 0 0 1408.4565333964915 360.5 L3300 360.5" fill="#fff" transform="matrix(1,0,0,1,-0.009212493896484375,0)" style="transform:matrix(1, 0, 0, 1, -0.00921249, 0);animation-play-state:paused" ></path>
<path d="M1522.05325016495 329.5 L1543.4966980519996 329.5 A15 15 0 0 1 1543.4966980519996 360.5 L1522.05325016495 360.5 A15 15 0 0 1 1522.05325016495 329.5" fill="#fff" transform="matrix(1,0,0,1,0,0)" opacity="0.724947" style="transform:matrix(1, 0, 0, 1, 0, 0);opacity:0.724947;animation-play-state:paused" ></path>
<path d="M3300 359.5 L1466.8845841030143 359.5 A15 15 0 0 1 1466.8845841030143 390.5 L3300 390.5" fill="#fff" transform="matrix(1,0,0,1,0.20813027024269104,0)" style="transform:matrix(1, 0, 0, 1, 0.20813, 0);animation-play-state:paused" ></path>
<path d="M3066.5808504785887 359.5 L3103.1617009571773 359.5 A15 15 0 0 1 3103.1617009571773 390.5 L3066.5808504785887 390.5 A15 15 0 0 1 3066.5808504785887 359.5" fill="#000" transform="matrix(1,0,0,1,-191.26876831054688,0)" opacity="1" style="transform:matrix(1, 0, 0, 1, -191.269, 0);animation-play-state:paused" ></path>
<path d="M3300 389.5 L1456.0245329164898 389.5 A15 15 0 0 0 1456.0245329164898 420.5 L3300 420.5" fill="#fff" transform="matrix(1,0,0,1,-1.5048973560333252,0)" style="transform:matrix(1, 0, 0, 1, -1.5049, 0);animation-play-state:paused" ></path>
<path d="M1508.8417293167329 389.5 L1526.4215893376245 389.5 A15 15 0 0 1 1526.4215893376245 420.5 L1508.8417293167329 420.5 A15 15 0 0 1 1508.8417293167329 389.5" fill="#fff" transform="matrix(1,0,0,1,0,0)" opacity="0.597015" style="transform:matrix(1, 0, 0, 1, 0, 0);opacity:0.597015;animation-play-state:paused" ></path>
<path d="M3300 419.5 L1459.7423999929824 419.5 A15 15 0 0 1 1459.7423999929824 450.5 L3300 450.5" fill="#fff" transform="matrix(1,0,0,1,31.97447395324707,0)" style="transform:matrix(1, 0, 0, 1, 31.9745, 0);animation-play-state:paused" ></path>
<path d="M3050.6133565153427 419.5 L3071.2267130306855 419.5 A15 15 0 0 1 3071.2267130306855 450.5 L3050.6133565153427 450.5 A15 15 0 0 1 3050.6133565153427 419.5" fill="#000" transform="matrix(1,0,0,1,-2313.162841796875,0)" opacity="0.533049" style="transform:matrix(1, 0, 0, 1, -2313.16, 0);opacity:0.533049;animation-play-state:paused" ></path>
<path d="M3300 449.5 L1405.6581372047237 449.5 A15 15 0 0 0 1405.6581372047237 480.5 L3300 480.5" fill="#fff" transform="matrix(1,0,0,1,-42.26231384277344,0)" style="transform:matrix(1, 0, 0, 1, -42.2623, 0);animation-play-state:paused" ></path>
<path d="M1534.9855679397444 449.5 L1553.305021861744 449.5 A15 15 0 0 1 1553.305021861744 480.5 L1534.9855679397444 480.5 A15 15 0 0 1 1534.9855679397444 449.5" fill="#fff" transform="matrix(1,0,0,1,0,0)" opacity="1" style="transform:matrix(1, 0, 0, 1, 0, 0);animation-play-state:paused" ></path>
<path d="M3300 479.5 L1462.0622185989198 479.5 A15 15 0 0 1 1462.0622185989198 510.5 L3300 510.5" fill="#fff" transform="matrix(1,0,0,1,12.111949920654297,0)" style="transform:matrix(1, 0, 0, 1, 12.1119, 0);animation-play-state:paused" ></path>
<path d="M3061.2197246413884 479.5 L3092.439449282777 479.5 A15 15 0 0 1 3092.439449282777 510.5 L3061.2197246413884 510.5 A15 15 0 0 1 3061.2197246413884 479.5" fill="#000" transform="matrix(1,0,0,1,-1092.591796875,0)" opacity="0.810235" style="transform:matrix(1, 0, 0, 1, -1092.59, 0);opacity:0.810235;animation-play-state:paused" ></path>
<path d="M3300 509.5 L1409.16480863152 509.5 A15 15 0 0 0 1409.16480863152 540.5 L3300 540.5" fill="#fff" transform="matrix(1,0,0,1,-11.80624008178711,0)" style="transform:matrix(1, 0, 0, 1, -11.8062, 0);animation-play-state:paused" ></path>
<path d="M1530.065965620534 509.5 L1552.1826838205825 509.5 A15 15 0 0 1 1552.1826838205825 540.5 L1530.065965620534 540.5 A15 15 0 0 1 1530.065965620534 509.5" fill="#fff" transform="matrix(1,0,0,1,0,0)" opacity="1" style="transform:matrix(1, 0, 0, 1, 0, 0);animation-play-state:paused" ></path>
<path d="M3300 539.5 L1457.9866115470606 539.5 A15 15 0 0 1 1457.9866115470606 570.5 L3300 570.5" fill="#fff" transform="matrix(1,0,0,1,3.0650932788848877,0)" style="transform:matrix(1, 0, 0, 1, 3.06509, 0);animation-play-state:paused" ></path>
<path d="M3058.729511738213 539.5 L3087.4590234764264 539.5 A15 15 0 0 1 3087.4590234764264 570.5 L3058.729511738213 570.5 A15 15 0 0 1 3058.729511738213 539.5" fill="#000" transform="matrix(1,0,0,1,-2708.929443359375,0)" opacity="0.277186" style="transform:matrix(1, 0, 0, 1, -2708.93, 0);opacity:0.277186;animation-play-state:paused" ></path>
<path d="M3300 569.5 L1394.662144332037 569.5 A15 15 0 0 0 1394.662144332037 600.5 L3300 600.5" fill="#fff" transform="matrix(1,0,0,1,-8.688613891601562,0)" style="transform:matrix(1, 0, 0, 1, -8.68861, 0);animation-play-state:paused" ></path>
<path d="M1534.3263083638392 569.5 L1555.7209519706587 569.5 A15 15 0 0 1 1555.7209519706587 600.5 L1534.3263083638392 600.5 A15 15 0 0 1 1534.3263083638392 569.5" fill="#fff" transform="matrix(1,0,0,1,0,0)" opacity="0.426439" style="transform:matrix(1, 0, 0, 1, 0, 0);opacity:0.426439;animation-play-state:paused" ></path>
<path d="M3300 599.5 L1466.2868217607981 599.5 A15 15 0 0 1 1466.2868217607981 630.5 L3300 630.5" fill="#fff" transform="matrix(1,0,0,1,18.274398803710938,0)" style="transform:matrix(1, 0, 0, 1, 18.2744, 0);animation-play-state:paused" ></path>
<path d="M3056.139117277624 599.5 L3082.2782345552478 599.5 A15 15 0 0 1 3082.2782345552478 630.5 L3056.139117277624 630.5 A15 15 0 0 1 3056.139117277624 599.5" fill="#000" transform="matrix(1,0,0,1,-2085.961181640625,0)" opacity="0.298508" style="transform:matrix(1, 0, 0, 1, -2085.96, 0);opacity:0.298508;animation-play-state:paused" ></path>
<path d="M3300 629.5 L1425.7640986799968 629.5 A15 15 0 0 0 1425.7640986799968 660.5 L3300 660.5" fill="#fff" transform="matrix(1,0,0,1,-34.3204231262207,0)" style="transform:matrix(1, 0, 0, 1, -34.3204, 0);animation-play-state:paused" ></path>
<path d="M1500.9406743470597 629.5 L1526.7425481826488 629.5 A15 15 0 0 1 1526.7425481826488 660.5 L1500.9406743470597 660.5 A15 15 0 0 1 1500.9406743470597 629.5" fill="#fff" transform="matrix(1,0,0,1,0,0)" opacity="0.170576" style="transform:matrix(1, 0, 0, 1, 0, 0);opacity:0.170576;animation-play-state:paused" ></path>
<path d="M3300 659.5 L1467.689771859989 659.5 A15 15 0 0 1 1467.689771859989 690.5 L3300 690.5" fill="#fff" transform="matrix(1,0,0,1,41.55351638793945,0)" style="transform:matrix(1, 0, 0, 1, 41.5535, 0);animation-play-state:paused" ></path>
<path d="M3067.57002744936 659.5 L3105.1400548987203 659.5 A15 15 0 0 1 3105.1400548987203 690.5 L3067.57002744936 690.5 A15 15 0 0 1 3067.57002744936 659.5" fill="#000" transform="matrix(1,0,0,1,-2351.935302734375,0)" opacity="0.042644" style="transform:matrix(1, 0, 0, 1, -2351.94, 0);opacity:0.042644;animation-play-state:paused" ></path>
<path d="M3300 689.5 L1435.9658645668644 689.5 A15 15 0 0 0 1435.9658645668644 720.5 L3300 720.5" fill="#fff" transform="matrix(1,0,0,1,-34.5225944519043,0)" style="transform:matrix(1, 0, 0, 1, -34.5226, 0);animation-play-state:paused" ></path>
<path d="M1498.3817629196662 689.5 L1536.2571714729659 689.5 A15 15 0 0 1 1536.2571714729659 720.5 L1498.3817629196662 720.5 A15 15 0 0 1 1498.3817629196662 689.5" fill="#fff" transform="matrix(1,0,0,1,0,0)" opacity="1" style="transform:matrix(1, 0, 0, 1, 0, 0);animation-play-state:paused" ></path>
<path d="M3300 719.5 L1483.98884370388 719.5 A15 15 0 0 1 1483.98884370388 750.5 L3300 750.5" fill="#fff" transform="matrix(1,0,0,1,15.109087944030762,0)" style="transform:matrix(1, 0, 0, 1, 15.1091, 0);animation-play-state:paused" ></path>
<path d="M3048.66382281613 719.5 L3067.32764563226 719.5 A15 15 0 0 1 3067.32764563226 750.5 L3048.66382281613 750.5 A15 15 0 0 1 3048.66382281613 719.5" fill="#000" transform="matrix(1,0,0,1,-191.6787872314453,0)" opacity="1" style="transform:matrix(1, 0, 0, 1, -191.679, 0);animation-play-state:paused" ></path>
<path d="M3300 749.5 L1434.025187071838 749.5 A15 15 0 0 0 1434.025187071838 780.5 L3300 780.5" fill="#fff" transform="matrix(1,0,0,1,-26.194881439208984,0)" style="transform:matrix(1, 0, 0, 1, -26.1949, 0);animation-play-state:paused" ></path>
<path d="M1525.4974229238437 749.5 L1537.580281894802 749.5 A15 15 0 0 1 1537.580281894802 780.5 L1525.4974229238437 780.5 A15 15 0 0 1 1525.4974229238437 749.5" fill="#fff" transform="matrix(1,0,0,1,0,0)" opacity="1" style="transform:matrix(1, 0, 0, 1, 0, 0);animation-play-state:paused" ></path>
<path d="M3300 779.5 L1461.8296567518355 779.5 A15 15 0 0 1 1461.8296567518355 810.5 L3300 810.5" fill="#fff" transform="matrix(1,0,0,1,26.61210060119629,0)" style="transform:matrix(1, 0, 0, 1, 26.6121, 0);animation-play-state:paused" ></path>
<path d="M3058.053966477476 779.5 L3086.107932954952 779.5 A15 15 0 0 1 3086.107932954952 810.5 L3058.053966477476 810.5 A15 15 0 0 1 3058.053966477476 779.5" fill="#000" transform="matrix(1,0,0,1,-748.0014038085938,0)" opacity="0.959488" style="transform:matrix(1, 0, 0, 1, -748.001, 0);opacity:0.959488;animation-play-state:paused" ></path>
<path d="M3300 809.5 L1424.0705804288507 809.5 A15 15 0 0 0 1424.0705804288507 840.5 L3300 840.5" fill="#fff" transform="matrix(1,0,0,1,-1.5763664245605469,0)" style="transform:matrix(1, 0, 0, 1, -1.57637, 0);animation-play-state:paused" ></path>
<path d="M1537.1970282947766 809.5 L1553.7735258368782 809.5 A15 15 0 0 1 1553.7735258368782 840.5 L1537.1970282947766 840.5 A15 15 0 0 1 1537.1970282947766 809.5" fill="#fff" transform="matrix(1,0,0,1,0,0)" opacity="1" style="transform:matrix(1, 0, 0, 1, 0, 0);animation-play-state:paused" ></path>
<path d="M3300 839.5 L1484.7666838259115 839.5 A15 15 0 0 1 1484.7666838259115 870.5 L3300 870.5" fill="#fff" transform="matrix(1,0,0,1,0.010066017508506775,0)" style="transform:matrix(1, 0, 0, 1, 0.010066, 0);animation-play-state:paused" ></path>
<path d="M3066.0114873155044 839.5 L3102.0229746310088 839.5 A15 15 0 0 1 3102.0229746310088 870.5 L3066.0114873155044 870.5 A15 15 0 0 1 3066.0114873155044 839.5" fill="#000" transform="matrix(1,0,0,1,-1688.2257080078125,0)" opacity="0.703625" style="transform:matrix(1, 0, 0, 1, -1688.23, 0);opacity:0.703625;animation-play-state:paused" ></path>
<path d="M3300 869.5 L1435.869626613045 869.5 A15 15 0 0 0 1435.869626613045 900.5 L3300 900.5" fill="#fff" transform="matrix(1,0,0,1,-27.937236785888672,0)" style="transform:matrix(1, 0, 0, 1, -27.9372, 0);animation-play-state:paused" ></path>
<path d="M1542.8959587813106 869.5 L1575.293268489806 869.5 A15 15 0 0 1 1575.293268489806 900.5 L1542.8959587813106 900.5 A15 15 0 0 1 1542.8959587813106 869.5" fill="#fff" transform="matrix(1,0,0,1,0,0)" opacity="1" style="transform:matrix(1, 0, 0, 1, 0, 0);animation-play-state:paused" ></path>
<path d="M3300 899.5 L1469.8783281946996 899.5 A15 15 0 0 1 1469.8783281946996 930.5 L3300 930.5" fill="#fff" transform="matrix(1,0,0,1,7.466476917266846,0)" style="transform:matrix(1, 0, 0, 1, 7.46648, 0);animation-play-state:paused" ></path>
<path d="M3063.0363041010887 899.5 L3096.0726082021774 899.5 A15 15 0 0 1 3096.0726082021774 930.5 L3063.0363041010887 930.5 A15 15 0 0 1 3063.0363041010887 899.5" fill="#000" transform="matrix(1,0,0,1,-2346.937744140625,0)" opacity="0.447761" style="transform:matrix(1, 0, 0, 1, -2346.94, 0);opacity:0.447761;animation-play-state:paused" ></path>
<path d="M3300 929.5 L1434.2722814064787 929.5 A15 15 0 0 0 1434.2722814064787 960.5 L3300 960.5" fill="#fff" transform="matrix(1,0,0,1,-2.6861610412597656,0)" style="transform:matrix(1, 0, 0, 1, -2.68616, 0);animation-play-state:paused" ></path>
<path d="M1570.756601080624 929.5 L1599.1998804950595 929.5 A15 15 0 0 1 1599.1998804950595 960.5 L1570.756601080624 960.5 A15 15 0 0 1 1570.756601080624 929.5" fill="#fff" transform="matrix(1,0,0,1,0,0)" opacity="0.8742" style="transform:matrix(1, 0, 0, 1, 0, 0);opacity:0.8742;animation-play-state:paused" ></path>
<path d="M3300 959.5 L1497.438112503332 959.5 A15 15 0 0 1 1497.438112503332 990.5 L3300 990.5" fill="#fff" transform="matrix(1,0,0,1,12.251985549926758,0)" style="transform:matrix(1, 0, 0, 1, 12.252, 0);animation-play-state:paused" ></path>
<path d="M3052.891839323232 959.5 L3075.783678646464 959.5 A15 15 0 0 1 3075.783678646464 990.5 L3052.891839323232 990.5 A15 15 0 0 1 3052.891839323232 959.5" fill="#000" transform="matrix(1,0,0,1,-1392.9881591796875,0)" opacity="0.810235" style="transform:matrix(1, 0, 0, 1, -1392.99, 0);opacity:0.810235;animation-play-state:paused" ></path>
<path d="M3300 989.5 L1478.661668925661 989.5 A15 15 0 0 0 1478.661668925661 1020.5 L3300 1020.5" fill="#fff" transform="matrix(1,0,0,1,-1.1245613098144531,0)" style="transform:matrix(1, 0, 0, 1, -1.12456, 0);animation-play-state:paused" ></path>
<path d="M1538.7814189013454 989.5 L1556.121662697841 989.5 A15 15 0 0 1 1556.121662697841 1020.5 L1538.7814189013454 1020.5 A15 15 0 0 1 1538.7814189013454 989.5" fill="#fff" transform="matrix(1,0,0,1,0,0)" opacity="0.746269" style="transform:matrix(1, 0, 0, 1, 0, 0);opacity:0.746269;animation-play-state:paused" ></path>
<path d="M3300 1019.5 L1509.4839560748837 1019.5 A15 15 0 0 1 1509.4839560748837 1050.5 L3300 1050.5" fill="#fff" transform="matrix(1,0,0,1,29.752676010131836,0)" style="transform:matrix(1, 0, 0, 1, 29.7527, 0);animation-play-state:paused" ></path>
<path d="M3043.2626117734862 1019.5 L3056.5252235469725 1019.5 A15 15 0 0 1 3056.5252235469725 1050.5 L3043.2626117734862 1050.5 A15 15 0 0 1 3043.2626117734862 1019.5" fill="#000" transform="matrix(1,0,0,1,-1893.3209228515625,0)" opacity="0.618336" style="transform:matrix(1, 0, 0, 1, -1893.32, 0);opacity:0.618336;animation-play-state:paused" ></path>
<path d="M3300 1049.5 L1465.2123371319701 1049.5 A15 15 0 0 0 1465.2123371319701 1080.5 L3300 1080.5" fill="#fff" transform="matrix(1,0,0,1,-22.96768569946289,0)" style="transform:matrix(1, 0, 0, 1, -22.9677, 0);animation-play-state:paused" ></path>
<path d="M1551.4105433182533 1049.5 L1570.9617093168572 1049.5 A15 15 0 0 1 1570.9617093168572 1080.5 L1551.4105433182533 1080.5 A15 15 0 0 1 1551.4105433182533 1049.5" fill="#fff" transform="matrix(1,0,0,1,0,0)" opacity="0.618337" style="transform:matrix(1, 0, 0, 1, 0, 0);opacity:0.618337;animation-play-state:paused" ></path>
<path d="M3300 1079.5 L1504.8954065844034 1079.5 A15 15 0 0 1 1504.8954065844034 1110.5 L3300 1110.5" fill="#fff" transform="matrix(1,0,0,1,24.891761779785156,0)" style="transform:matrix(1, 0, 0, 1, 24.8918, 0);animation-play-state:paused" ></path>
<path d="M3043.725193867709 1079.5 L3057.450387735418 1079.5 A15 15 0 0 1 3057.450387735418 1110.5 L3043.725193867709 1110.5 A15 15 0 0 1 3043.725193867709 1079.5" fill="#000" transform="matrix(1,0,0,1,-796.3771362304688,0)" opacity="1" style="transform:matrix(1, 0, 0, 1, -796.377, 0);animation-play-state:paused" ></path>
<path d="M3300 1109.5 L1480.6784548956327 1109.5 A15 15 0 0 0 1480.6784548956327 1140.5 L3300 1140.5" fill="#fff" transform="matrix(1,0,0,1,-4.644252300262451,0)" style="transform:matrix(1, 0, 0, 1, -4.64425, 0);animation-play-state:paused" ></path>
<path d="M1567.473774290301 1109.5 L1587.2384482124367 1109.5 A15 15 0 0 1 1587.2384482124367 1140.5 L1567.473774290301 1140.5 A15 15 0 0 1 1567.473774290301 1109.5" fill="#fff" transform="matrix(1,0,0,1,0,0)" opacity="0.490405" style="transform:matrix(1, 0, 0, 1, 0, 0);opacity:0.490405;animation-play-state:paused" ></path>
<path d="M3300 1139.5 L1486.168410593652 1139.5 A15 15 0 0 1 1486.168410593652 1170.5 L3300 1170.5" fill="#fff" transform="matrix(1,0,0,1,33.070228576660156,0)" style="transform:matrix(1, 0, 0, 1, 33.0702, 0);animation-play-state:paused" ></path>
<path d="M3044.9915988747625 1139.5 L3059.983197749525 1139.5 A15 15 0 0 1 3059.983197749525 1170.5 L3044.9915988747625 1170.5 A15 15 0 0 1 3044.9915988747625 1139.5" fill="#000" transform="matrix(1,0,0,1,-356.50115966796875,0)" opacity="1" style="transform:matrix(1, 0, 0, 1, -356.501, 0);animation-play-state:paused" ></path>
<path d="M3300 1169.5 L1448.9126209940937 1169.5 A15 15 0 0 0 1448.9126209940937 1200.5 L3300 1200.5" fill="#fff" transform="matrix(1,0,0,1,-21.127904891967773,0)" style="transform:matrix(1, 0, 0, 1, -21.1279, 0);animation-play-state:paused" ></path>
<path d="M1583.9098509295045 1169.5 L1601.7866505654222 1169.5 A15 15 0 0 1 1601.7866505654222 1200.5 L1583.9098509295045 1200.5 A15 15 0 0 1 1583.9098509295045 1169.5" fill="#fff" transform="matrix(1,0,0,1,0,0)" opacity="1" style="transform:matrix(1, 0, 0, 1, 0, 0);animation-play-state:paused" ></path>
<path d="M3300 1199.5 L1504.5241462640506 1199.5 A15 15 0 0 1 1504.5241462640506 1230.5 L3300 1230.5" fill="#fff" transform="matrix(1,0,0,1,4.039257049560547,0)" style="transform:matrix(1, 0, 0, 1, 4.03926, 0);animation-play-state:paused" ></path>
<path d="M3059.6178263574993 1199.5 L3089.2356527149987 1199.5 A15 15 0 0 1 3089.2356527149987 1230.5 L3059.6178263574993 1230.5 A15 15 0 0 1 3059.6178263574993 1199.5" fill="#000" transform="matrix(1,0,0,1,-1241.0147705078125,0)" opacity="0.895522" style="transform:matrix(1, 0, 0, 1, -1241.01, 0);opacity:0.895522;animation-play-state:paused" ></path>
<path d="M3300 1229.5 L1462.3157328200712 1229.5 A15 15 0 0 0 1462.3157328200712 1260.5 L3300 1260.5" fill="#fff" transform="matrix(1,0,0,1,-0.008493621833622456,0)" style="transform:matrix(1, 0, 0, 1, -0.00849362, 0);animation-play-state:paused" ></path>
<path d="M1562.0779351836038 1229.5 L1580.1570200195706 1229.5 A15 15 0 0 1 1580.1570200195706 1260.5 L1562.0779351836038 1260.5 A15 15 0 0 1 1562.0779351836038 1229.5" fill="#fff" transform="matrix(1,0,0,1,0,0)" opacity="0.469083" style="transform:matrix(1, 0, 0, 1, 0, 0);opacity:0.469083;animation-play-state:paused" ></path>
<path d="M3300 1259.5 L1512.6531775289425 1259.5 A15 15 0 0 1 1512.6531775289425 1290.5 L3300 1290.5" fill="#fff" transform="matrix(1,0,0,1,42.220703125,0)" style="transform:matrix(1, 0, 0, 1, 42.2207, 0);animation-play-state:paused" ></path>
<path d="M3049.3143503011647 1259.5 L3068.6287006023294 1259.5 A15 15 0 0 1 3068.6287006023294 1290.5 L3049.3143503011647 1290.5 A15 15 0 0 1 3049.3143503011647 1259.5" fill="#000" transform="matrix(1,0,0,1,-2101.08740234375,0)" opacity="0.170576" style="transform:matrix(1, 0, 0, 1, -2101.09, 0);opacity:0.170576;animation-play-state:paused" ></path>
<path d="M3300 1289.5 L1481.0050388125107 1289.5 A15 15 0 0 0 1481.0050388125107 1320.5 L3300 1320.5" fill="#fff" transform="matrix(1,0,0,1,-47.79347610473633,0)" style="transform:matrix(1, 0, 0, 1, -47.7935, 0);animation-play-state:paused" ></path>
<path d="M1565.6966530966463 1289.5 L1595.1235962232022 1289.5 A15 15 0 0 1 1595.1235962232022 1320.5 L1565.6966530966463 1320.5 A15 15 0 0 1 1565.6966530966463 1289.5" fill="#fff" transform="matrix(1,0,0,1,0,0)" opacity="0.10661" style="transform:matrix(1, 0, 0, 1, 0, 0);opacity:0.10661;animation-play-state:paused" ></path>
<path d="M3300 1319.5 L1521.9427385471631 1319.5 A15 15 0 0 1 1521.9427385471631 1350.5 L3300 1350.5" fill="#fff" transform="matrix(1,0,0,1,30.523048400878906,0)" style="transform:matrix(1, 0, 0, 1, 30.523, 0);animation-play-state:paused" ></path>
<path d="M3047.4247156944043 1319.5 L3064.8494313888086 1319.5 A15 15 0 0 1 3064.8494313888086 1350.5 L3047.4247156944043 1350.5 A15 15 0 0 1 3047.4247156944043 1319.5" fill="#000" transform="matrix(1,0,0,1,-2248.884521484375,0)" opacity="0.127931" style="transform:matrix(1, 0, 0, 1, -2248.88, 0);opacity:0.127931;animation-play-state:paused" ></path>
<path d="M3300 1349.5 L1464.087062991658 1349.5 A15 15 0 0 0 1464.087062991658 1380.5 L3300 1380.5" fill="#fff" transform="matrix(1,0,0,1,-48.732933044433594,0)" style="transform:matrix(1, 0, 0, 1, -48.7329, 0);animation-play-state:paused" ></path>
<path d="M1607.042186731836 1349.5 L1626.2637955186578 1349.5 A15 15 0 0 1 1626.2637955186578 1380.5 L1607.042186731836 1380.5 A15 15 0 0 1 1607.042186731836 1349.5" fill="#fff" transform="matrix(1,0,0,1,0,0)" opacity="1" style="transform:matrix(1, 0, 0, 1, 0, 0);animation-play-state:paused" ></path>
<path d="M3300 1379.5 L1520.884967491624 1379.5 A15 15 0 0 1 1520.884967491624 1410.5 L3300 1410.5" fill="#fff" transform="matrix(1,0,0,1,38.8167839050293,0)" style="transform:matrix(1, 0, 0, 1, 38.8168, 0);animation-play-state:paused" ></path>
<path d="M3048.4802052163895 1379.5 L3066.960410432779 1379.5 A15 15 0 0 1 3066.960410432779 1410.5 L3048.4802052163895 1410.5 A15 15 0 0 1 3048.4802052163895 1379.5" fill="#000" transform="matrix(1,0,0,1,-400.99224853515625,0)" opacity="1" style="transform:matrix(1, 0, 0, 1, -400.992, 0);animation-play-state:paused" ></path>
<path d="M3300 1409.5 L1490.2771379585183 1409.5 A15 15 0 0 0 1490.2771379585183 1440.5 L3300 1440.5" fill="#fff" transform="matrix(1,0,0,1,-12.886722564697266,0)" style="transform:matrix(1, 0, 0, 1, -12.8867, 0);animation-play-state:paused" ></path>
<path d="M1571.508644995713 1409.5 L1606.1541240914516 1409.5 A15 15 0 0 1 1606.1541240914516 1440.5 L1571.508644995713 1440.5 A15 15 0 0 1 1571.508644995713 1409.5" fill="#fff" transform="matrix(1,0,0,1,0,0)" opacity="1" style="transform:matrix(1, 0, 0, 1, 0, 0);animation-play-state:paused" ></path>
<path d="M3300 1439.5 L1528.9486960301447 1439.5 A15 15 0 0 1 1528.9486960301447 1470.5 L3300 1470.5" fill="#fff" transform="matrix(1,0,0,1,28.375873565673828,0)" style="transform:matrix(1, 0, 0, 1, 28.3759, 0);animation-play-state:paused" ></path>
<path d="M3060.3603255129574 1439.5 L3090.720651025915 1439.5 A15 15 0 0 1 3090.720651025915 1470.5 L3060.3603255129574 1470.5 A15 15 0 0 1 3060.3603255129574 1439.5" fill="#000" transform="matrix(1,0,0,1,-972.0775756835938,0)" opacity="1" style="transform:matrix(1, 0, 0, 1, -972.078, 0);animation-play-state:paused" ></path>
<path d="M3300 1469.5 L1502.931066324491 1469.5 A15 15 0 0 0 1502.931066324491 1500.5 L3300 1500.5" fill="#fff" transform="matrix(1,0,0,1,-3.5876617431640625,0)" style="transform:matrix(1, 0, 0, 1, -3.58766, 0);animation-play-state:paused" ></path>
<path d="M1562.2430243707472 1469.5 L1601.8890858977584 1469.5 A15 15 0 0 1 1601.8890858977584 1500.5 L1562.2430243707472 1500.5 A15 15 0 0 1 1562.2430243707472 1469.5" fill="#fff" transform="matrix(1,0,0,1,0,0)" opacity="1" style="transform:matrix(1, 0, 0, 1, 0, 0);animation-play-state:paused" ></path>
<path d="M3300 1499.5 L1526.9256809571834 1499.5 A15 15 0 0 1 1526.9256809571834 1530.5 L3300 1530.5" fill="#fff" transform="matrix(1,0,0,1,13.638678550720215,0)" style="transform:matrix(1, 0, 0, 1, 13.6387, 0);animation-play-state:paused" ></path>
<path d="M3047.9364290930193 1499.5 L3065.8728581860387 1499.5 A15 15 0 0 1 3065.8728581860387 1530.5 L3047.9364290930193 1530.5 A15 15 0 0 1 3047.9364290930193 1499.5" fill="#000" transform="matrix(1,0,0,1,-2491.862060546875,0)" opacity="0.405117" style="transform:matrix(1, 0, 0, 1, -2491.86, 0);opacity:0.405117;animation-play-state:paused" ></path>
<path d="M3300 1529.5 L1467.173646312078 1529.5 A15 15 0 0 0 1467.173646312078 1560.5 L3300 1560.5" fill="#fff" transform="matrix(1,0,0,1,-37.535850524902344,0)" style="transform:matrix(1, 0, 0, 1, -37.5359, 0);animation-play-state:paused" ></path>
<path d="M1576.185229377673 1529.5 L1604.7668097870987 1529.5 A15 15 0 0 1 1604.7668097870987 1560.5 L1576.185229377673 1560.5 A15 15 0 0 1 1576.185229377673 1529.5" fill="#fff" transform="matrix(1,0,0,1,0,0)" opacity="0.213219" style="transform:matrix(1, 0, 0, 1, 0, 0);opacity:0.213219;animation-play-state:paused" ></path>
<path d="M3300 1559.5 L1500.9540826343302 1559.5 A15 15 0 0 1 1500.9540826343302 1590.5 L3300 1590.5" fill="#fff" transform="matrix(1,0,0,1,8.205953598022461,0)" style="transform:matrix(1, 0, 0, 1, 8.20595, 0);animation-play-state:paused" ></path>
<path d="M3047.1075693639323 1559.5 L3064.2151387278645 1559.5 A15 15 0 0 1 3064.2151387278645 1590.5 L3047.1075693639323 1590.5 A15 15 0 0 1 3047.1075693639323 1559.5" fill="#000" transform="matrix(1,0,0,1,-3522.588623046875,0)" opacity="0.021321" style="transform:matrix(1, 0, 0, 1, -3522.59, 0);opacity:0.021321;animation-play-state:paused" ></path>
<path d="M3300 1589.5 L1487.6710175132685 1589.5 A15 15 0 0 0 1487.6710175132685 1620.5 L3300 1620.5" fill="#fff" transform="matrix(1,0,0,1,-4.716644287109375,0)" style="transform:matrix(1, 0, 0, 1, -4.71664, 0);animation-play-state:paused" ></path>
<path d="M1587.7831156884258 1589.5 L1599.26668663078 1589.5 A15 15 0 0 1 1599.26668663078 1620.5 L1587.7831156884258 1620.5 A15 15 0 0 1 1587.7831156884258 1589.5" fill="#fff" transform="matrix(1,0,0,1,0,0)" opacity="1" style="transform:matrix(1, 0, 0, 1, 0, 0);animation-play-state:paused" ></path>
<path d="M3300 1619.5 L1523.0728437077146 1619.5 A15 15 0 0 1 1523.0728437077146 1650.5 L3300 1650.5" fill="#fff" transform="matrix(1,0,0,1,30.405906677246094,0)" style="transform:matrix(1, 0, 0, 1, 30.4059, 0);animation-play-state:paused" ></path>
<path d="M3067.0363006362577 1619.5 L3104.0726012725154 1619.5 A15 15 0 0 1 3104.0726012725154 1650.5 L3067.0363006362577 1650.5 A15 15 0 0 1 3067.0363006362577 1619.5" fill="#000" transform="matrix(1,0,0,1,-1165.2833251953125,0)" opacity="0.831557" style="transform:matrix(1, 0, 0, 1, -1165.28, 0);opacity:0.831557;animation-play-state:paused" ></path>
<path d="M3300 1649.5 L1501.0148399797092 1649.5 A15 15 0 0 0 1501.0148399797092 1680.5 L3300 1680.5" fill="#fff" transform="matrix(1,0,0,1,-36.9619026184082,0)" style="transform:matrix(1, 0, 0, 1, -36.9619, 0);animation-play-state:paused" ></path>
<path d="M1572.642499111142 1649.5 L1595.4961158396989 1649.5 A15 15 0 0 1 1595.4961158396989 1680.5 L1572.642499111142 1680.5 A15 15 0 0 1 1572.642499111142 1649.5" fill="#fff" transform="matrix(1,0,0,1,0,0)" opacity="0.10661" style="transform:matrix(1, 0, 0, 1, 0, 0);opacity:0.10661;animation-play-state:paused" ></path>
<path d="M3300 1679.5 L1530.0661445276921 1679.5 A15 15 0 0 1 1530.0661445276921 1710.5 L3300 1710.5" fill="#fff" transform="matrix(1,0,0,1,29.96516990661621,0)" style="transform:matrix(1, 0, 0, 1, 29.9652, 0);animation-play-state:paused" ></path>
<path d="M3052.0921428510665 1679.5 L3074.184285702133 1679.5 A15 15 0 0 1 3074.184285702133 1710.5 L3052.0921428510665 1710.5 A15 15 0 0 1 3052.0921428510665 1679.5" fill="#000" transform="matrix(1,0,0,1,-54.79389190673828,0)" opacity="1" style="transform:matrix(1, 0, 0, 1, -54.7939, 0);animation-play-state:paused" ></path>
<path d="M3300 1709.5 L1470.2148528383643 1709.5 A15 15 0 0 0 1470.2148528383643 1740.5 L3300 1740.5" fill="#fff" transform="matrix(1,0,0,1,-7.593630790710449,0)" style="transform:matrix(1, 0, 0, 1, -7.59363, 0);animation-play-state:paused" ></path>
<path d="M1603.8652127057428 1709.5 L1638.936188392269 1709.5 A15 15 0 0 1 1638.936188392269 1740.5 L1603.8652127057428 1740.5 A15 15 0 0 1 1603.8652127057428 1709.5" fill="#fff" transform="matrix(1,0,0,1,0,0)" opacity="0.639659" style="transform:matrix(1, 0, 0, 1, 0, 0);opacity:0.639659;animation-play-state:paused" ></path>
<path d="M3300 1739.5 L1528.0292352042022 1739.5 A15 15 0 0 1 1528.0292352042022 1770.5 L3300 1770.5" fill="#fff" transform="matrix(1,0,0,1,31.45851707458496,0)" style="transform:matrix(1, 0, 0, 1, 31.4585, 0);animation-play-state:paused" ></path>
<path d="M3063.8868271748574 1739.5 L3097.773654349715 1739.5 A15 15 0 0 1 3097.773654349715 1770.5 L3063.8868271748574 1770.5 A15 15 0 0 1 3063.8868271748574 1739.5" fill="#000" transform="matrix(1,0,0,1,-639.9851684570312,0)" opacity="1" style="transform:matrix(1, 0, 0, 1, -639.985, 0);animation-play-state:paused" ></path>
<path d="M3300 1769.5 L1505.270992754088 1769.5 A15 15 0 0 0 1505.270992754088 1800.5 L3300 1800.5" fill="#fff" transform="matrix(1,0,0,1,-35.17018508911133,0)" style="transform:matrix(1, 0, 0, 1, -35.1702, 0);animation-play-state:paused" ></path>
<path d="M1556.8818369420094 1769.5 L1593.03770521733 1769.5 A15 15 0 0 1 1593.03770521733 1800.5 L1556.8818369420094 1800.5 A15 15 0 0 1 1556.8818369420094 1769.5" fill="#fff" transform="matrix(1,0,0,1,0,0)" opacity="0.511727" style="transform:matrix(1, 0, 0, 1, 0, 0);opacity:0.511727;animation-play-state:paused" ></path>
<path d="M3300 1799.5 L1531.4745685142261 1799.5 A15 15 0 0 1 1531.4745685142261 1830.5 L3300 1830.5" fill="#fff" transform="matrix(1,0,0,1,5.16046142578125,0)" style="transform:matrix(1, 0, 0, 1, 5.16046, 0);animation-play-state:paused" ></path>
<path d="M3045.3632379013357 1799.5 L3060.7264758026713 1799.5 A15 15 0 0 1 3060.7264758026713 1830.5 L3045.3632379013357 1830.5 A15 15 0 0 1 3045.3632379013357 1799.5" fill="#000" transform="matrix(1,0,0,1,-1251.8291015625,0)" opacity="0.895523" style="transform:matrix(1, 0, 0, 1, -1251.83, 0);opacity:0.895523;animation-play-state:paused" ></path>
<path d="M3300 1829.5 L1478.68711175087 1829.5 A15 15 0 0 0 1478.68711175087 1860.5 L3300 1860.5" fill="#fff" transform="matrix(1,0,0,1,-0.3693199157714844,0)" style="transform:matrix(1, 0, 0, 1, -0.36932, 0);animation-play-state:paused" ></path>
<path d="M1558.794293815824 1829.5 L1572.0535401268642 1829.5 A15 15 0 0 1 1572.0535401268642 1860.5 L1558.794293815824 1860.5 A15 15 0 0 1 1558.794293815824 1829.5" fill="#fff" transform="matrix(1,0,0,1,0,0)" opacity="0.767591" style="transform:matrix(1, 0, 0, 1, 0, 0);opacity:0.767591;animation-play-state:paused" ></path>
<path d="M3300 1859.5 L1502.0221705971953 1859.5 A15 15 0 0 1 1502.0221705971953 1890.5 L3300 1890.5" fill="#fff" transform="matrix(1,0,0,1,19.2147159576416,0)" style="transform:matrix(1, 0, 0, 1, 19.2147, 0);animation-play-state:paused" ></path>
<path d="M3050.681031287056 1859.5 L3071.3620625741123 1859.5 A15 15 0 0 1 3071.3620625741123 1890.5 L3050.681031287056 1890.5 A15 15 0 0 1 3050.681031287056 1859.5" fill="#000" transform="matrix(1,0,0,1,-940.3236694335938,0)" opacity="0.959487" style="transform:matrix(1, 0, 0, 1, -940.324, 0);opacity:0.959487;animation-play-state:paused" ></path>
<path d="M3300 1889.5 L1490.313513445767 1889.5 A15 15 0 0 0 1490.313513445767 1920.5 L3300 1920.5" fill="#fff" transform="matrix(1,0,0,1,-19.493484497070312,0)" style="transform:matrix(1, 0, 0, 1, -19.4935, 0);animation-play-state:paused" ></path>
<path d="M1553.7851000899623 1889.5 L1584.3361541482566 1889.5 A15 15 0 0 1 1584.3361541482566 1920.5 L1553.7851000899623 1920.5 A15 15 0 0 1 1553.7851000899623 1889.5" fill="#fff" transform="matrix(1,0,0,1,0,0)" opacity="0.511727" style="transform:matrix(1, 0, 0, 1, 0, 0);opacity:0.511727;animation-play-state:paused" ></path>
<path d="M3300 1919.5 L1496.6423826114947 1919.5 A15 15 0 0 1 1496.6423826114947 1950.5 L3300 1950.5" fill="#fff" transform="matrix(1,0,0,1,43.62056350708008,0)" style="transform:matrix(1, 0, 0, 1, 43.6206, 0);animation-play-state:paused" ></path>
<path d="M3041.136431739421 1919.5 L3052.272863478842 1919.5 A15 15 0 0 1 3052.272863478842 1950.5 L3041.136431739421 1950.5 A15 15 0 0 1 3041.136431739421 1919.5" fill="#000" transform="matrix(1,0,0,1,-1807.6920166015625,0)" opacity="0.383795" style="transform:matrix(1, 0, 0, 1, -1807.69, 0);opacity:0.383795;animation-play-state:paused" ></path>
<path d="M3300 1949.5 L1438.6603979778486 1949.5 A15 15 0 0 0 1438.6603979778486 1980.5 L3300 1980.5" fill="#fff" transform="matrix(1,0,0,1,-29.051319122314453,0)" style="transform:matrix(1, 0, 0, 1, -29.0513, 0);animation-play-state:paused" ></path>
<path d="M1564.2260361534757 1949.5 L1582.019374834847 1949.5 A15 15 0 0 1 1582.019374834847 1980.5 L1564.2260361534757 1980.5 A15 15 0 0 1 1564.2260361534757 1949.5" fill="#fff" transform="matrix(1,0,0,1,0,0)" opacity="0.383794" style="transform:matrix(1, 0, 0, 1, 0, 0);opacity:0.383794;animation-play-state:paused" ></path>
<path d="M3300 1979.5 L1493.3531971105506 1979.5 A15 15 0 0 1 1493.3531971105506 2010.5 L3300 2010.5" fill="#fff" transform="matrix(1,0,0,1,43.75310516357422,0)" style="transform:matrix(1, 0, 0, 1, 43.7531, 0);animation-play-state:paused" ></path>
<path d="M3053.711850005534 1979.5 L3077.423700011068 1979.5 A15 15 0 0 1 3077.423700011068 2010.5 L3053.711850005534 2010.5 A15 15 0 0 1 3053.711850005534 1979.5" fill="#000" transform="matrix(1,0,0,1,-2613.821044921875,0)" opacity="0.063966" style="transform:matrix(1, 0, 0, 1, -2613.82, 0);opacity:0.063966;animation-play-state:paused" ></path></g></mask></defs>


<rect x="0" y="0" width="3000" height="2000" fill="url(#ldbk-photon-n8bwvkn069a-lg)" mask="url(#ldbk-photon-n8bwvkn069a-mask)" style="animation-play-state:paused" ></rect></g></svg>